<svg width="128" height="128" viewBox="0 0 128 128" fill="none" xmlns="http://www.w3.org/2000/svg">
<g clip-path="url(#clip0_0_3)">
<path d="M8 51.5556C8 27.5005 27.5005 8 51.5556 8H76.4444C100.5 8 120 27.5005 120 51.5556V76.4444C120 100.5 100.5 120 76.4444 120H51.5556C27.5005 120 8 100.5 8 76.4444V51.5556Z" fill="#FF444F"/>
<path d="M78.2603 31.2038L74.6489 51.6845H62.1127C50.4172 51.6845 39.2695 61.16 37.2034 72.8555L36.3288 77.8335C34.2723 89.529 42.0756 99.0047 53.7711 99.0047H64.2269C72.751 99.0047 80.8716 92.1044 82.3708 83.5805L92 28.9951L78.2603 31.2038ZM69.3652 81.6488C68.9039 84.2819 66.5333 86.4252 63.9002 86.4252H57.5479C52.2912 86.4252 48.7739 82.158 49.6964 76.8917L50.2442 73.7877C51.1764 68.5309 56.1928 64.2544 61.4496 64.2544H72.4324L69.3652 81.6488Z" fill="white"/>
</g>
<circle cx="100" cy="100" r="28" fill="#414652"/>
<path d="M116.76 93.5104C117.052 94.1667 116.833 94.8229 116.323 95.3333L113.188 98.1771C113.26 98.7604 113.26 99.4167 113.26 100C113.26 100.656 113.26 101.312 113.188 101.896L116.323 104.74C116.833 105.177 117.052 105.906 116.76 106.562C116.469 107.437 116.104 108.24 115.667 109.042L115.302 109.625C114.792 110.427 114.281 111.229 113.698 111.885C113.26 112.469 112.531 112.615 111.875 112.396L107.865 111.156C106.844 111.885 105.75 112.469 104.656 112.979L103.708 117.135C103.563 117.792 103.052 118.302 102.396 118.448C101.375 118.594 100.354 118.667 99.2604 118.667C98.2396 118.667 97.2188 118.594 96.1979 118.448C95.5417 118.302 95.0313 117.792 94.8854 117.135L93.9375 112.979C92.7708 112.469 91.75 111.885 90.7292 111.156L86.7188 112.396C86.0625 112.615 85.3333 112.469 84.8958 111.958C84.3125 111.229 83.8021 110.427 83.2917 109.625L82.9271 109.042C82.4896 108.24 82.125 107.437 81.8333 106.562C81.5417 105.906 81.7604 105.25 82.2708 104.74L85.4063 101.896C85.3333 101.312 85.3333 100.656 85.3333 100C85.3333 99.4167 85.3333 98.7604 85.4063 98.1771L82.2708 95.3333C81.7604 94.8229 81.5417 94.1667 81.8333 93.5104C82.125 92.6354 82.4896 91.8333 82.9271 91.0312L83.2917 90.4479C83.8021 89.6458 84.3125 88.8437 84.8958 88.1146C85.3333 87.6042 86.0625 87.4583 86.7188 87.6771L90.7292 88.9167C91.75 88.1875 92.8438 87.5312 93.9375 87.0937L94.8854 82.9375C95.0313 82.2812 95.5417 81.7708 96.1979 81.625C97.2188 81.4792 98.2396 81.3333 99.3333 81.3333C100.354 81.3333 101.375 81.4792 102.396 81.625C103.052 81.6979 103.563 82.2812 103.708 82.9375L104.656 87.0937C105.823 87.5312 106.844 88.1875 107.865 88.9167L111.875 87.6771C112.531 87.4583 113.26 87.6042 113.698 88.1146C114.281 88.8437 114.792 89.6458 115.302 90.4479L115.667 91.0312C116.104 91.8333 116.469 92.6354 116.833 93.5104H116.76ZM99.3333 105.833C101.375 105.833 103.271 104.74 104.365 102.917C105.385 101.167 105.385 98.9062 104.365 97.0833C103.271 95.3333 101.375 94.1667 99.3333 94.1667C97.2188 94.1667 95.3229 95.3333 94.2292 97.0833C93.2083 98.9062 93.2083 101.167 94.2292 102.917C95.3229 104.74 97.2188 105.833 99.3333 105.833Z" fill="white"/>
<defs>
<clipPath id="clip0_0_3">
<rect width="112" height="112" fill="white" transform="translate(8 8)"/>
</clipPath>
</defs>
</svg>
